<svg width="47" height="47" viewBox="0 0 47 47" fill="none" xmlns="http://www.w3.org/2000/svg">
<path fill-rule="evenodd" clip-rule="evenodd" d="M23.5 4.7C13.117 4.7 4.7 13.117 4.7 23.5C4.7 33.8829 13.117 42.3 23.5 42.3C33.8829 42.3 42.3 33.8829 42.3 23.5C42.3 13.117 33.8829 4.7 23.5 4.7ZM0 23.5C0 10.5213 10.5213 0 23.5 0C36.4787 0 47 10.5213 47 23.5C47 36.4787 36.4787 47 23.5 47C10.5213 47 0 36.4787 0 23.5ZM32.2117 17.1383C33.1294 18.056 33.1294 19.544 32.2117 20.4617L22.8117 29.8617C21.894 30.7794 20.406 30.7794 19.4883 29.8617L14.7883 25.1617C13.8706 24.244 13.8706 22.756 14.7883 21.8383C15.706 20.9206 17.194 20.9206 18.1117 21.8383L21.15 24.8766L28.8883 17.1383C29.806 16.2206 31.294 16.2206 32.2117 17.1383Z" fill="#5CB85C"/>
</svg>
